<mxfile host="app.diagrams.net" modified="2021-04-26T01:03:40.625Z" agent="5.0 (Macintosh)" etag="jRHErcsK8wVE9UQQ-ieu" version="14.6.6" type="github">
  <diagram id="LggS6HPZgjN6Ui5qVZqp" name="Page-1">
    <mxGraphModel dx="1554" dy="793" grid="0" gridSize="10" guides="1" tooltips="1" connect="1" arrows="1" fold="1" page="1" pageScale="1" pageWidth="1100" pageHeight="850" math="0" shadow="0">
      <root>
        <mxCell id="0" />
        <mxCell id="1" parent="0" />
        <mxCell id="oYrc2Cjy6K_ESoqNYmJO-1" value="" style="strokeWidth=1;shadow=0;dashed=0;align=center;html=1;shape=mxgraph.mockup.containers.browserWindow;rSize=0;strokeColor=#666666;strokeColor2=#008cff;strokeColor3=#c4c4c4;mainText=,;recursiveResize=0;" parent="1" vertex="1">
          <mxGeometry x="93" y="56" width="990" height="650" as="geometry" />
        </mxCell>
        <mxCell id="oYrc2Cjy6K_ESoqNYmJO-2" value="Page 1" style="strokeWidth=1;shadow=0;dashed=0;align=center;html=1;shape=mxgraph.mockup.containers.anchor;fontSize=17;fontColor=#666666;align=left;" parent="oYrc2Cjy6K_ESoqNYmJO-1" vertex="1">
          <mxGeometry x="60" y="12" width="110" height="26" as="geometry" />
        </mxCell>
        <mxCell id="oYrc2Cjy6K_ESoqNYmJO-3" value="https://www.draw.io" style="strokeWidth=1;shadow=0;dashed=0;align=center;html=1;shape=mxgraph.mockup.containers.anchor;rSize=0;fontSize=17;fontColor=#666666;align=left;" parent="oYrc2Cjy6K_ESoqNYmJO-1" vertex="1">
          <mxGeometry x="130" y="60" width="250" height="26" as="geometry" />
        </mxCell>
        <mxCell id="s7iCrM4hBrOnHmUGDK4r-1" value="&amp;nbsp;&amp;nbsp;&amp;nbsp;&amp;nbsp;&amp;nbsp;&amp;nbsp;&amp;nbsp;&amp;nbsp;&amp;nbsp;&amp;nbsp; Vynil" style="html=1;shadow=0;dashed=0;fillColor=#343A40;strokeColor=none;fontSize=16;fontColor=#ffffff;align=left;spacing=15;" vertex="1" parent="oYrc2Cjy6K_ESoqNYmJO-1">
          <mxGeometry x="-1" y="110" width="991" height="63" as="geometry" />
        </mxCell>
        <mxCell id="s7iCrM4hBrOnHmUGDK4r-2" value="Catalogo" style="strokeColor=none;fontSize=14;align=center;fillColor=none;fontColor=#CCCCCC;" vertex="1" parent="s7iCrM4hBrOnHmUGDK4r-1">
          <mxGeometry width="70" height="40" relative="1" as="geometry">
            <mxPoint x="127" y="12" as="offset" />
          </mxGeometry>
        </mxCell>
        <mxCell id="s7iCrM4hBrOnHmUGDK4r-3" value="Artistas" style="fillColor=none;strokeColor=none;fontSize=14;align=center;fontColor=#CCCCCC;" vertex="1" parent="s7iCrM4hBrOnHmUGDK4r-1">
          <mxGeometry width="70" height="40" relative="1" as="geometry">
            <mxPoint x="204" y="12" as="offset" />
          </mxGeometry>
        </mxCell>
        <mxCell id="s7iCrM4hBrOnHmUGDK4r-4" value="Coleccionistas" style="fillColor=none;strokeColor=none;fontSize=14;align=center;spacingRight=0;fontColor=#CCCCCC;" vertex="1" parent="s7iCrM4hBrOnHmUGDK4r-1">
          <mxGeometry width="80" height="40" relative="1" as="geometry">
            <mxPoint x="290" y="12" as="offset" />
          </mxGeometry>
        </mxCell>
        <mxCell id="s7iCrM4hBrOnHmUGDK4r-5" value="Premios" style="fillColor=none;strokeColor=none;fontSize=14;align=center;fontColor=#FFFFFF;" vertex="1" parent="s7iCrM4hBrOnHmUGDK4r-1">
          <mxGeometry width="80" height="40" relative="1" as="geometry">
            <mxPoint x="378" y="12" as="offset" />
          </mxGeometry>
        </mxCell>
        <mxCell id="s7iCrM4hBrOnHmUGDK4r-6" value="Search" style="html=1;shadow=0;dashed=0;shape=mxgraph.bootstrap.rrect;rSize=5;fontSize=14;fontColor=#1CA5B8;strokeColor=#1CA5B8;fillColor=none;" vertex="1" parent="s7iCrM4hBrOnHmUGDK4r-1">
          <mxGeometry x="1" width="70" height="40" relative="1" as="geometry">
            <mxPoint x="-80" y="10" as="offset" />
          </mxGeometry>
        </mxCell>
        <mxCell id="s7iCrM4hBrOnHmUGDK4r-7" value="Search" style="html=1;shadow=0;dashed=0;shape=mxgraph.bootstrap.rrect;rSize=5;fontSize=14;fontColor=#6C767D;strokeColor=#CED4DA;fillColor=#ffffff;align=left;spacing=10;" vertex="1" parent="s7iCrM4hBrOnHmUGDK4r-1">
          <mxGeometry x="1" width="180" height="40" relative="1" as="geometry">
            <mxPoint x="-270" y="10" as="offset" />
          </mxGeometry>
        </mxCell>
        <mxCell id="s7iCrM4hBrOnHmUGDK4r-8" value="" style="dashed=0;outlineConnect=0;html=1;align=center;labelPosition=center;verticalLabelPosition=bottom;verticalAlign=top;shape=mxgraph.weblogos.blinklist;strokeColor=none;fontColor=#FFFFFF;fillColor=#66FF66;" vertex="1" parent="s7iCrM4hBrOnHmUGDK4r-1">
          <mxGeometry x="10" y="13.5" width="43" height="36" as="geometry" />
        </mxCell>
      </root>
    </mxGraphModel>
  </diagram>
</mxfile>
